<?xml version="1.0" encoding="utf-8"?>
<!-- Generator: Adobe Illustrator 18.0.0, SVG Export Plug-In . SVG Version: 6.00 Build 0)  -->
<!DOCTYPE svg PUBLIC "-//W3C//DTD SVG 1.1//EN" "http://www.w3.org/Graphics/SVG/1.1/DTD/svg11.dtd">
<svg version="1.1" id="artwork" xmlns="http://www.w3.org/2000/svg" xmlns:xlink="http://www.w3.org/1999/xlink" x="0px" y="0px"
	 width="1400px" height="980px" viewBox="0 0 1400 980" enable-background="new 0 0 1400 980" xml:space="preserve">
<g>
	<linearGradient id="SVGID_1_" gradientUnits="userSpaceOnUse" x1="700" y1="980" x2="700" y2="-1.634986e-05">
		<stop  offset="0" style="stop-color:#FFFFFF"/>
		<stop  offset="0.9944" style="stop-color:#8ED8F8"/>
	</linearGradient>
	<rect y="0" fill="url(#SVGID_1_)" width="1400" height="980"/>
	<g>
		<path fill="#FFFFFF" d="M1361.3,151.8c-58.8,0-111.9,24.1-150,63c-11.4-6.1-24.5-9.5-38.4-9.5c-13.1,0-25.5,3.1-36.5,8.6
			c-37.8-55.4-101.5-91.8-173.7-91.8c-81.9,0-152.9,46.9-187.5,115.2c-18.5-10.1-39.7-15.8-62.3-15.8c-23,0-44.7,6-63.4,16.5
			c-32.5-20.7-71.1-32.6-112.5-32.6c-49.4,0-94.8,17-130.6,45.5c-26.7-8.8-55.3-13.6-85-13.6c-9.2,0-18.3,0.5-27.2,1.4
			C244.3,125.6,131.4,46.8,0,46.8v642.7c36.9,0,72.4-6.3,105.4-17.7c49.5,65.2,127.8,107.3,215.9,107.3
			c108.4,0,201.8-63.6,245.2-155.5c80.7-11.4,146.7-68.5,170.8-144.4c20.3-3.8,38.8-12.4,54.6-24.5c38.1,53.1,100.4,87.7,170.8,87.7
			c87.8,0,163-53.8,194.4-130.2c22.5,91.9,105.4,160,204.1,160c13.2,0,26.1-1.2,38.7-3.6V155.4
			C1387.5,153,1374.5,151.8,1361.3,151.8z"/>
	</g>
	<g>
		<path fill="#35875D" d="M676.2,193.4c-38.2-46.4-109.2-46.4-147.4,0L224.2,564l239.7-291.6c30-36.5,85.9-36.5,116,0L819.6,564
			h161.3L676.2,193.4z"/>
		<path fill="#398F62" d="M463.9,272.4L224.2,564h595.3L579.9,272.4C549.8,235.9,493.9,235.9,463.9,272.4z"/>
	</g>
	<g>
		<path fill="#3E9466" d="M937.7,264.9c-30.8-37.5-88.2-37.5-119,0L573,564l193.4-235.3c24.2-29.5,69.4-29.5,93.6,0L1053.4,564
			h130.2L937.7,264.9z"/>
		<path fill="#419E6D" d="M766.4,328.7L573,564h480.4L860,328.7C835.7,299.2,790.6,299.2,766.4,328.7z"/>
	</g>
	<g>
		<path fill="#609965" d="M300.7,342.9c-30.8-37.5-88.2-37.5-119,0L0,564l140.8-171.3c23.9-29,68.3-29,92.1,0L373.7,564h108.7
			L300.7,342.9z"/>
		<path fill="#68A56D" d="M140.8,392.7L0,564h373.7L232.9,392.7C209.1,363.7,164.6,363.7,140.8,392.7z"/>
	</g>
	<g>
		<path fill="#609965" d="M1215.6,342.9c-30.8-37.5-88.2-37.5-119,0L914.9,564l139.8-170.1c21.9-26.7,63.4-24.3,82.2,4.6L1244.4,564
			h153L1215.6,342.9z"/>
		<path fill="#68A56D" d="M1054.8,393.9L914.9,564h329.4L1137,398.5C1118.2,369.5,1076.7,367.2,1054.8,393.9z"/>
	</g>
	<path fill="#1A5433" d="M1313.4,483.8c-1.5-0.1-3.1-0.1-4.7-0.1c-29.6,0-55.4,16-69.4,39.8c-3.5-0.9-7.2-1.5-11-1.5
		c-9.7,0-18.7,3.3-25.8,8.9c-11.1-18-31-30.1-53.8-30.1c-34.9,0-63.1,28.3-63.1,63.1s28.3,63.1,63.1,63.1c22.7,0,42.7-12,53.8-30.1
		c7.1,5.6,16.1,8.9,25.8,8.9c3.8,0,7.5-0.5,11-1.5c13.9,23.8,39.8,39.8,69.4,39.8c1.6,0,3.1-0.1,4.7-0.1
		c21.6,23.3,52.4,37.9,86.6,37.9V445.9C1365.8,445.9,1334.9,460.5,1313.4,483.8z"/>
	<path fill="#1A5433" d="M251.2,500.9c-22.7,0-42.7,12-53.8,30.1c-7.1-5.6-16.1-8.9-25.8-8.9c-3.8,0-7.5,0.5-11,1.5
		c-13.9-23.8-39.8-39.8-69.4-39.8c-1.6,0-3.1,0.1-4.7,0.1C65.1,460.5,34.2,445.9,0,445.9v236.1c34.2,0,65.1-14.6,86.6-37.9
		c1.5,0.1,3.1,0.1,4.7,0.1c29.6,0,55.4-16,69.4-39.8c3.5,0.9,7.2,1.5,11,1.5c9.7,0,18.7-3.3,25.8-8.9c11.1,18,31,30.1,53.8,30.1
		c34.9,0,63.1-28.3,63.1-63.1C314.3,529.1,286.1,500.9,251.2,500.9z"/>
	<path fill="#1A5433" d="M978.5,504.9c-21.3,0-40,11.3-50.4,28.2c-6.7-5.2-15-8.3-24.2-8.3c-3.6,0-7,0.5-10.3,1.4
		c-13.1-22.3-37.3-37.3-65-37.3c-1.5,0-2.9,0.1-4.4,0.1c-20.2-21.8-49.1-35.5-81.1-35.5c-15.3,0-29.9,3.1-43.2,8.8
		c-13.3-5.6-27.9-8.8-43.2-8.8c-32.1,0-60.9,13.7-81.1,35.5c-1.4-0.1-2.9-0.1-4.4-0.1c-27.7,0-51.9,15-65,37.3
		c-3.3-0.9-6.7-1.4-10.3-1.4c-9.1,0-17.5,3.1-24.2,8.3c-10.4-16.9-29.1-28.2-50.4-28.2c-32.7,0-59.1,26.5-59.1,59.1
		s26.5,59.1,59.1,59.1c21.3,0,40-11.3,50.4-28.2c6.7,5.2,15,8.3,24.2,8.3c3.6,0,7-0.5,10.3-1.4c13.1,22.3,37.3,37.3,65,37.3
		c1.5,0,2.9-0.1,4.4-0.1c20.2,21.8,49.1,35.5,81.1,35.5c15.3,0,29.9-3.1,43.2-8.8c13.3,5.6,27.9,8.8,43.2,8.8
		c32.1,0,60.9-13.7,81.1-35.5c1.4,0.1,2.9,0.1,4.4,0.1c27.7,0,51.9-15,65-37.3c3.3,0.9,6.7,1.4,10.3,1.4c9.1,0,17.5-3.1,24.2-8.3
		c10.4,16.9,29.1,28.2,50.4,28.2c32.7,0,59.1-26.5,59.1-59.1S1011.1,504.9,978.5,504.9z"/>
	<g>
		<g>
			<rect y="564" fill="#8BC751" width="1400" height="360"/>
		</g>
	</g>
	<g>
		<rect y="924" fill="#B9643E" width="1400" height="56"/>
	</g>
	<path fill="#39B54A" d="M1357.2,743.9c-0.5,1-1.7,1.4-2.7,0.9l-8.3-4.2l-8.3,4.2c-0.6,0.3-1.2,0.3-1.8,0l-8.3-4.2l-8.3,4.2
		c-0.6,0.3-1.2,0.3-1.8,0l-8.3-4.2l-8.3,4.2c-0.6,0.3-1.2,0.3-1.8,0l-8.3-4.2l-8.3,4.2c-0.6,0.3-1.2,0.3-1.8,0l-8.3-4.2l-8.3,4.2
		c-0.6,0.3-1.2,0.3-1.8,0l-8.3-4.2l-8.3,4.2c-0.6,0.3-1.2,0.3-1.8,0l-8.3-4.2l-8.3,4.2c-0.6,0.3-1.2,0.3-1.8,0l-8.3-4.2l-8.3,4.2
		c-0.6,0.3-1.2,0.3-1.8,0l-8.3-4.2l-8.3,4.2c-0.6,0.3-1.2,0.3-1.8,0l-8.3-4.2l-8.3,4.2c-0.6,0.3-1.2,0.3-1.8,0l-8.3-4.2l-8.3,4.2
		c-0.6,0.3-1.2,0.3-1.8,0l-8.3-4.2l-8.3,4.2l0,0c-1,0.5-2.2,0.1-2.7-0.9c-0.5-1-0.1-2.2,0.9-2.7l9.2-4.7c0.6-0.3,1.2-0.3,1.8,0
		l8.3,4.2l8.3-4.2c0.6-0.3,1.2-0.3,1.8,0l8.3,4.2l8.3-4.2c0.6-0.3,1.2-0.3,1.8,0l8.3,4.2l8.3-4.2c0.6-0.3,1.2-0.3,1.8,0l8.3,4.2
		l8.3-4.2c0.6-0.3,1.2-0.3,1.8,0l8.3,4.2l8.3-4.2c0.6-0.3,1.2-0.3,1.8,0l8.3,4.2l8.3-4.2c0.6-0.3,1.2-0.3,1.8,0l8.3,4.2l8.3-4.2
		c0.6-0.3,1.2-0.3,1.8,0l8.3,4.2l8.3-4.2c0.6-0.3,1.2-0.3,1.8,0l8.3,4.2l8.3-4.2c0.6-0.3,1.2-0.3,1.8,0l8.3,4.2l8.3-4.2
		c0.6-0.3,1.2-0.3,1.8,0l8.3,4.2l8.3-4.2c0.6-0.3,1.2-0.3,1.8,0l9.2,4.7C1357.3,741.7,1357.7,742.9,1357.2,743.9z M148.4,744.8
		L148.4,744.8l8.3-4.2l8.3,4.2c0.6,0.3,1.2,0.3,1.8,0l8.3-4.2l8.3,4.2c0.6,0.3,1.2,0.3,1.8,0l8.3-4.2l8.3,4.2c0.6,0.3,1.2,0.3,1.8,0
		l8.3-4.2l8.3,4.2c0.6,0.3,1.2,0.3,1.8,0l8.3-4.2l8.3,4.2c0.6,0.3,1.2,0.3,1.8,0l8.3-4.2l8.3,4.2c0.6,0.3,1.2,0.3,1.8,0l8.3-4.2
		l8.3,4.2c0.6,0.3,1.2,0.3,1.8,0l8.3-4.2l8.3,4.2c0.6,0.3,1.2,0.3,1.8,0l8.3-4.2l8.3,4.2c0.6,0.3,1.2,0.3,1.8,0l8.3-4.2l8.3,4.2
		c0.6,0.3,1.2,0.3,1.8,0l8.3-4.2l8.3,4.2c0.6,0.3,1.2,0.3,1.8,0l8.3-4.2l8.3,4.2c1,0.5,2.2,0.1,2.7-0.9s0.1-2.2-0.9-2.7l-9.2-4.7
		c-0.6-0.3-1.2-0.3-1.8,0l-8.3,4.2l-8.3-4.2c-0.6-0.3-1.2-0.3-1.8,0l-8.3,4.2l-8.3-4.2c-0.6-0.3-1.2-0.3-1.8,0l-8.3,4.2l-8.3-4.2
		c-0.6-0.3-1.2-0.3-1.8,0l-8.3,4.2l-8.3-4.2c-0.6-0.3-1.2-0.3-1.8,0l-8.3,4.2l-8.3-4.2c-0.6-0.3-1.2-0.3-1.8,0l-8.3,4.2l-8.3-4.2
		c-0.6-0.3-1.2-0.3-1.8,0l-8.3,4.2l-8.3-4.2c-0.6-0.3-1.2-0.3-1.8,0l-8.3,4.2l-8.3-4.2c-0.6-0.3-1.2-0.3-1.8,0l-8.3,4.2l-8.3-4.2
		c-0.6-0.3-1.2-0.3-1.8,0l-8.3,4.2l-8.3-4.2c-0.6-0.3-1.2-0.3-1.8,0l-8.3,4.2l-8.3-4.2c-0.6-0.3-1.2-0.3-1.8,0l-9.2,4.7
		c-1,0.5-1.4,1.7-0.9,2.7C146.3,744.9,147.5,745.3,148.4,744.8z M675.4,771.5c0.6,0.3,1.2,0.3,1.8,0l8.3-4.2l8.3,4.2
		c0.6,0.3,1.2,0.3,1.8,0l8.3-4.2l8.3,4.2c0.6,0.3,1.2,0.3,1.8,0l8.3-4.2l8.3,4.2c1,0.5,2.2,0.1,2.7-0.9c0.5-1,0.1-2.2-0.9-2.7
		l-9.2-4.7c-0.6-0.3-1.2-0.3-1.8,0l-8.3,4.2l-8.3-4.2c-0.6-0.3-1.2-0.3-1.8,0l-8.3,4.2l-8.3-4.2c-0.6-0.3-1.2-0.3-1.8,0l-8.3,4.2
		l-8.3-4.2c-0.6-0.3-1.2-0.3-1.8,0l-8.3,4.2l-8.3-4.2c-0.6-0.3-1.2-0.3-1.8,0l-8.3,4.2l-8.3-4.2c-0.6-0.3-1.2-0.3-1.8,0l-8.3,4.2
		l-8.3-4.2c-0.6-0.3-1.2-0.3-1.8,0l-8.3,4.2l-8.3-4.2c-0.6-0.3-1.2-0.3-1.8,0l-8.3,4.2l-8.3-4.2c-0.6-0.3-1.2-0.3-1.8,0l-8.3,4.2
		l-8.3-4.2c-0.6-0.3-1.2-0.3-1.8,0l-8.3,4.2l-8.3-4.2c-0.6-0.3-1.2-0.3-1.8,0l-8.3,4.2l-8.3-4.2c-0.6-0.3-1.2-0.3-1.8,0l-9.2,4.7
		c-1,0.5-1.4,1.7-0.9,2.7c0.5,1,1.7,1.4,2.7,0.9v0l8.3-4.2l8.3,4.2c0.6,0.3,1.2,0.3,1.8,0l8.3-4.2l8.3,4.2c0.6,0.3,1.2,0.3,1.8,0
		l8.3-4.2l8.3,4.2c0.6,0.3,1.2,0.3,1.8,0l8.3-4.2l8.3,4.2c0.6,0.3,1.2,0.3,1.8,0l8.3-4.2l8.3,4.2c0.6,0.3,1.2,0.3,1.8,0l8.3-4.2
		l8.3,4.2c0.6,0.3,1.2,0.3,1.8,0l8.3-4.2l8.3,4.2c0.6,0.3,1.2,0.3,1.8,0l8.3-4.2l8.3,4.2c0.6,0.3,1.2,0.3,1.8,0l8.3-4.2L675.4,771.5
		z M1006.8,798.1l8.3-4.2l8.3,4.2c0.6,0.3,1.2,0.3,1.8,0l8.3-4.2l8.3,4.2c0.6,0.3,1.2,0.3,1.8,0l8.3-4.2l8.3,4.2
		c0.6,0.3,1.2,0.3,1.8,0l8.3-4.2l8.3,4.2c0.6,0.3,1.2,0.3,1.8,0l8.3-4.2l8.3,4.2c0.6,0.3,1.2,0.3,1.8,0l8.3-4.2l8.3,4.2
		c0.6,0.3,1.2,0.3,1.8,0l8.3-4.2l8.3,4.2c1,0.5,2.2,0.1,2.7-0.9c0.5-1,0.1-2.2-0.9-2.7l-9.2-4.7c-0.6-0.3-1.2-0.3-1.8,0l-8.3,4.2
		l-8.3-4.2c-0.6-0.3-1.2-0.3-1.8,0l-8.3,4.2l-8.3-4.2c-0.6-0.3-1.2-0.3-1.8,0l-8.3,4.2l-8.3-4.2c-0.6-0.3-1.2-0.3-1.8,0l-8.3,4.2
		l-8.3-4.2c-0.6-0.3-1.2-0.3-1.8,0l-8.3,4.2l-8.3-4.2c-0.6-0.3-1.2-0.3-1.8,0l-8.3,4.2l-8.3-4.2c-0.6-0.3-1.2-0.3-1.8,0l-8.3,4.2
		l-8.3-4.2c-0.6-0.3-1.2-0.3-1.8,0l-8.3,4.2l-8.3-4.2c-0.6-0.3-1.2-0.3-1.8,0l-8.3,4.2l-8.3-4.2c-0.6-0.3-1.2-0.3-1.8,0l-8.3,4.2
		l-8.3-4.2c-0.6-0.3-1.2-0.3-1.8,0l-8.3,4.2l-8.3-4.2c-0.6-0.3-1.2-0.3-1.8,0l-9.2,4.7c-1,0.5-1.4,1.7-0.9,2.7
		c0.5,1,1.7,1.4,2.7,0.9l0,0l8.3-4.2l8.3,4.2c0.6,0.3,1.2,0.3,1.8,0l8.3-4.2l8.3,4.2c0.6,0.3,1.2,0.3,1.8,0l8.3-4.2l8.3,4.2
		c0.6,0.3,1.2,0.3,1.8,0l8.3-4.2l8.3,4.2c0.6,0.3,1.2,0.3,1.8,0l8.3-4.2l8.3,4.2C1005.6,798.4,1006.2,798.4,1006.8,798.1z
		 M338.3,876.2L338.3,876.2l-9.2-4.7c-0.6-0.3-1.2-0.3-1.8,0l-8.3,4.2l-8.3-4.2c-0.6-0.3-1.2-0.3-1.8,0l-8.3,4.2l-8.3-4.2
		c-0.6-0.3-1.2-0.3-1.8,0l-8.3,4.2l-8.3-4.2c-0.6-0.3-1.2-0.3-1.8,0l-8.3,4.2l-8.3-4.2c-0.6-0.3-1.2-0.3-1.8,0l-8.3,4.2l-8.3-4.2
		c-0.6-0.3-1.2-0.3-1.8,0l-8.3,4.2l-8.3-4.2c-0.6-0.3-1.2-0.3-1.8,0l-8.3,4.2l-8.3-4.2c-0.6-0.3-1.2-0.3-1.8,0l-8.3,4.2l-8.3-4.2
		c-0.6-0.3-1.2-0.3-1.8,0l-8.3,4.2l-8.3-4.2c-0.6-0.3-1.2-0.3-1.8,0l-8.3,4.2l-8.3-4.2c-0.6-0.3-1.2-0.3-1.8,0l-8.3,4.2l-8.3-4.2
		c-0.6-0.3-1.2-0.3-1.8,0l-9.2,4.7c-1,0.5-1.4,1.7-0.9,2.7c0.5,1,1.7,1.4,2.7,0.9l8.3-4.2l8.3,4.2c0.6,0.3,1.2,0.3,1.8,0l8.3-4.2
		l8.3,4.2c0.6,0.3,1.2,0.3,1.8,0l8.3-4.2l8.3,4.2c0.6,0.3,1.2,0.3,1.8,0l8.3-4.2l8.3,4.2c0.6,0.3,1.2,0.3,1.8,0l8.3-4.2l8.3,4.2
		c0.6,0.3,1.2,0.3,1.8,0l8.3-4.2l8.3,4.2c0.6,0.3,1.2,0.3,1.8,0l8.3-4.2l8.3,4.2c0.6,0.3,1.2,0.3,1.8,0l8.3-4.2l8.3,4.2
		c0.6,0.3,1.2,0.3,1.8,0l8.3-4.2l8.3,4.2c0.6,0.3,1.2,0.3,1.8,0l8.3-4.2l8.3,4.2c0.6,0.3,1.2,0.3,1.8,0l8.3-4.2l8.3,4.2
		c0.6,0.3,1.2,0.3,1.8,0l8.3-4.2l8.3,4.2c1,0.5,2.2,0.1,2.7-0.9C339.7,877.9,339.3,876.7,338.3,876.2z M890.1,855.7L890.1,855.7
		l-9.2-4.7c-0.6-0.3-1.2-0.3-1.8,0l-8.3,4.2l-8.3-4.2c-0.6-0.3-1.2-0.3-1.8,0l-8.3,4.2l-8.3-4.2c-0.6-0.3-1.2-0.3-1.8,0l-8.3,4.2
		l-8.3-4.2c-0.6-0.3-1.2-0.3-1.8,0l-8.3,4.2l-8.3-4.2c-0.6-0.3-1.2-0.3-1.8,0l-8.3,4.2L789,851c-0.6-0.3-1.2-0.3-1.8,0l-8.3,4.2
		l-8.3-4.2c-0.6-0.3-1.2-0.3-1.8,0l-8.3,4.2l-8.3-4.2c-0.6-0.3-1.2-0.3-1.8,0l-8.3,4.2l-8.3-4.2c-0.6-0.3-1.2-0.3-1.8,0l-8.3,4.2
		l-8.3-4.2c-0.6-0.3-1.2-0.3-1.8,0l-8.3,4.2L697,851c-0.6-0.3-1.2-0.3-1.8,0l-8.3,4.2l-8.3-4.2c-0.6-0.3-1.2-0.3-1.8,0l-9.2,4.7
		c-1,0.5-1.4,1.7-0.9,2.7c0.5,1,1.7,1.4,2.7,0.9l8.3-4.2l8.3,4.2c0.6,0.3,1.2,0.3,1.8,0l8.3-4.2l8.3,4.2c0.6,0.3,1.2,0.3,1.8,0
		l8.3-4.2l8.3,4.2c0.6,0.3,1.2,0.3,1.8,0l8.3-4.2l8.3,4.2c0.6,0.3,1.2,0.3,1.8,0l8.3-4.2l8.3,4.2c0.6,0.3,1.2,0.3,1.8,0l8.3-4.2
		l8.3,4.2c0.6,0.3,1.2,0.3,1.8,0l8.3-4.2l8.3,4.2c0.6,0.3,1.2,0.3,1.8,0l8.3-4.2l8.3,4.2c0.6,0.3,1.2,0.3,1.8,0l8.3-4.2l8.3,4.2
		c0.6,0.3,1.2,0.3,1.8,0l8.3-4.2l8.3,4.2c0.6,0.3,1.2,0.3,1.8,0l8.3-4.2l8.3,4.2c0.6,0.3,1.2,0.3,1.8,0l8.3-4.2l8.3,4.2
		c1,0.5,2.2,0.1,2.7-0.9C891.5,857.4,891.1,856.2,890.1,855.7z M1227.2,888.8L1227.2,888.8l-9.2-4.7c-0.6-0.3-1.2-0.3-1.8,0
		l-8.3,4.2l-8.3-4.2c-0.6-0.3-1.2-0.3-1.8,0l-8.3,4.2l-8.3-4.2c-0.6-0.3-1.2-0.3-1.8,0l-8.3,4.2l-8.3-4.2c-0.6-0.3-1.2-0.3-1.8,0
		l-8.3,4.2l-8.3-4.2c-0.6-0.3-1.2-0.3-1.8,0l-8.3,4.2l-8.3-4.2c-0.6-0.3-1.2-0.3-1.8,0l-8.3,4.2l-8.3-4.2c-0.6-0.3-1.2-0.3-1.8,0
		l-8.3,4.2l-8.3-4.2c-0.6-0.3-1.2-0.3-1.8,0l-8.3,4.2l-8.3-4.2c-0.6-0.3-1.2-0.3-1.8,0l-8.3,4.2l-8.3-4.2c-0.6-0.3-1.2-0.3-1.8,0
		l-8.3,4.2l-8.3-4.2c-0.6-0.3-1.2-0.3-1.8,0l-8.3,4.2l-8.3-4.2c-0.6-0.3-1.2-0.3-1.8,0l-9.2,4.7c-1,0.5-1.4,1.7-0.9,2.7
		c0.5,1,1.7,1.4,2.7,0.9l8.3-4.2l8.3,4.2c0.6,0.3,1.2,0.3,1.8,0l8.3-4.2l8.3,4.2c0.6,0.3,1.2,0.3,1.8,0l8.3-4.2l8.3,4.2
		c0.6,0.3,1.2,0.3,1.8,0l8.3-4.2l8.3,4.2c0.6,0.3,1.2,0.3,1.8,0l8.3-4.2l8.3,4.2c0.6,0.3,1.2,0.3,1.8,0l8.3-4.2l8.3,4.2
		c0.6,0.3,1.2,0.3,1.8,0l8.3-4.2l8.3,4.2c0.6,0.3,1.2,0.3,1.8,0l8.3-4.2l8.3,4.2c0.6,0.3,1.2,0.3,1.8,0l8.3-4.2l8.3,4.2
		c0.6,0.3,1.2,0.3,1.8,0l8.3-4.2l8.3,4.2c0.6,0.3,1.2,0.3,1.8,0l8.3-4.2l8.3,4.2c0.6,0.3,1.2,0.3,1.8,0l8.3-4.2l8.3,4.2
		c1,0.5,2.2,0.1,2.7-0.9C1228.6,890.5,1228.2,889.3,1227.2,888.8z M559.2,824.3L559.2,824.3l-9.2-4.7c-0.6-0.3-1.2-0.3-1.8,0
		l-8.3,4.2l-8.3-4.2c-0.6-0.3-1.2-0.3-1.8,0l-8.3,4.2l-8.3-4.2c-0.6-0.3-1.2-0.3-1.8,0l-8.3,4.2l-8.3-4.2c-0.6-0.3-1.2-0.3-1.8,0
		l-8.3,4.2l-8.3-4.2c-0.6-0.3-1.2-0.3-1.8,0l-8.3,4.2l-8.3-4.2c-0.6-0.3-1.2-0.3-1.8,0l-8.3,4.2l-8.3-4.2c-0.6-0.3-1.2-0.3-1.8,0
		l-8.3,4.2l-8.3-4.2c-0.6-0.3-1.2-0.3-1.8,0l-8.3,4.2l-8.3-4.2c-0.6-0.3-1.2-0.3-1.8,0l-8.3,4.2l-8.3-4.2c-0.6-0.3-1.2-0.3-1.8,0
		l-8.3,4.2l-8.3-4.2c-0.6-0.3-1.2-0.3-1.8,0l-8.3,4.2l-8.3-4.2c-0.6-0.3-1.2-0.3-1.8,0l-9.2,4.7c-1,0.5-1.4,1.7-0.9,2.7
		c0.5,1,1.7,1.4,2.7,0.9l8.3-4.2l8.3,4.2c0.6,0.3,1.2,0.3,1.8,0l8.3-4.2l8.3,4.2c0.6,0.3,1.2,0.3,1.8,0l8.3-4.2l8.3,4.2
		c0.6,0.3,1.2,0.3,1.8,0l8.3-4.2l8.3,4.2c0.6,0.3,1.2,0.3,1.8,0l8.3-4.2l8.3,4.2c0.6,0.3,1.2,0.3,1.8,0l8.3-4.2l8.3,4.2
		c0.6,0.3,1.2,0.3,1.8,0l8.3-4.2l8.3,4.2c0.6,0.3,1.2,0.3,1.8,0l8.3-4.2l8.3,4.2c0.6,0.3,1.2,0.3,1.8,0l8.3-4.2l8.3,4.2
		c0.6,0.3,1.2,0.3,1.8,0l8.3-4.2l8.3,4.2c0.6,0.3,1.2,0.3,1.8,0l8.3-4.2l8.3,4.2c0.6,0.3,1.2,0.3,1.8,0l8.3-4.2l8.3,4.2
		c1,0.5,2.2,0.1,2.7-0.9C560.6,826,560.2,824.8,559.2,824.3z"/>
</g>
<g>
	<g>
		<rect x="246.1" y="522.2" fill="#884E31" width="15.6" height="75.9"/>
	</g>
	<path fill="#39B54A" d="M253.9,400.6c23.7,0,42.9,62,42.9,106.2c0,44.3-19.2,54.1-42.9,54.1s-42.9-9.8-42.9-54.1
		C211,462.6,230.2,400.6,253.9,400.6z"/>
</g>
<g>
	<g>
		<rect x="414.2" y="534.9" fill="#884E31" width="13.3" height="64.7"/>
	</g>
	<path fill="#39B54A" d="M420.8,431.3c20.2,0,36.6,52.8,36.6,90.6s-16.4,46.1-36.6,46.1c-20.2,0-36.6-8.4-36.6-46.1
		S400.6,431.3,420.8,431.3z"/>
</g>
<g>
	<g>
		<rect x="801.5" y="532.9" fill="#884E31" width="13.9" height="67.8"/>
	</g>
	<path fill="#009444" d="M808.5,424.4c21.2,0,38.3,55.4,38.3,94.9c0,39.5-17.2,48.3-38.3,48.3c-21.2,0-38.3-8.8-38.3-48.3
		C770.1,479.7,787.3,424.4,808.5,424.4z"/>
</g>
<g>
	<g>
		<path fill="#884E31" d="M545.5,600.2l-39.4-10c-7.9-2-13.4-9.1-13.4-17.2v-29.5h8.9v29.5c0,4.1,2.7,7.6,6.7,8.6l39.4,10
			L545.5,600.2z"/>
	</g>
	<circle fill="#006838" cx="497.2" cy="524.6" r="43.6"/>
	<g>
		<rect x="535.2" y="531.5" fill="#884E31" width="22.9" height="87.3"/>
	</g>
	<circle fill="#009444" cx="546.6" cy="492.1" r="67.4"/>
	<g>
		<path fill="#884E31" d="M548.1,586.6l-2.9-8.4l26.7-9.1c4.2-1.4,7-5.4,7-9.8V530h8.9v29.3c0,8.2-5.2,15.5-13,18.2L548.1,586.6z"/>
	</g>
	<circle fill="#39B54A" cx="583.3" cy="524.3" r="37.3"/>
</g>
<g>
	<g>
		<path fill="#884E31" d="M993.9,600.2l-39.4-10c-7.9-2-13.4-9.1-13.4-17.2v-29.5h8.9v29.5c0,4.1,2.7,7.6,6.7,8.6l39.4,10
			L993.9,600.2z"/>
	</g>
	<circle fill="#006838" cx="945.5" cy="524.6" r="43.6"/>
	<g>
		<rect x="983.5" y="531.5" fill="#884E31" width="22.9" height="87.3"/>
	</g>
	<circle fill="#009444" cx="994.9" cy="492.1" r="67.4"/>
	<g>
		<path fill="#884E31" d="M996.4,586.6l-2.9-8.4l26.7-9.1c4.2-1.4,7-5.4,7-9.8V530h8.9v29.3c0,8.2-5.2,15.5-13,18.2L996.4,586.6z"/>
	</g>
	<circle fill="#39B54A" cx="1031.6" cy="524.3" r="37.3"/>
</g>
<g>
	<g>
		<path fill="#884E31" d="M202.6,596.3l-41.4-10.5c-8.3-2.1-14-9.5-14-18v-31h9.3v31c0,4.3,2.9,8,7,9l41.4,10.5L202.6,596.3z"/>
	</g>
	<circle fill="#F15A29" cx="151.8" cy="516.9" r="45.7"/>
	<g>
		<rect x="191.7" y="524.1" fill="#884E31" width="24" height="91.6"/>
	</g>
	<circle fill="#F7941E" cx="203.7" cy="482.8" r="70.7"/>
	<g>
		<path fill="#884E31" d="M205.2,582l-3-8.8l28-9.6c4.4-1.5,7.3-5.6,7.3-10.3v-30.8h9.3v30.8c0,8.6-5.5,16.3-13.6,19.1L205.2,582z"
			/>
	</g>
	<circle fill="#FBB040" cx="242.2" cy="516.6" r="39.2"/>
</g>
<g>
	<ellipse fill="#7D472C" cx="259.1" cy="678.2" rx="5.2" ry="10"/>
	<rect x="161.9" y="668.2" fill="#7D472C" width="97.2" height="19.9"/>
	<ellipse fill="#7D472C" cx="161.9" cy="678.2" rx="5.2" ry="10"/>
	<path fill="#BF7D54" d="M161.9,686.9c-1.9,0-3.9-3.7-3.9-8.7c0-5,2.1-8.7,3.9-8.7s3.9,3.7,3.9,8.7
		C165.9,683.2,163.8,686.9,161.9,686.9z"/>
	<path fill="#AE734C" d="M161.9,682.4c-0.9,0-1.9-1.8-1.9-4.2c0-2.4,1-4.2,1.9-4.2s1.9,1.8,1.9,4.2
		C163.8,680.6,162.8,682.4,161.9,682.4z"/>
</g>
<g>
	<ellipse fill="#834B2F" cx="265.2" cy="661.8" rx="5.2" ry="10"/>
	<rect x="168" y="651.8" fill="#834B2F" width="97.2" height="19.9"/>
	<ellipse fill="#834B2F" cx="168" cy="661.8" rx="5.2" ry="10"/>
	<path fill="#BF7D54" d="M168,670.5c-1.9,0-3.9-3.7-3.9-8.7c0-5,2.1-8.7,3.9-8.7s3.9,3.7,3.9,8.7C171.9,666.8,169.9,670.5,168,670.5
		z"/>
	<path fill="#AE734C" d="M168,666c-0.9,0-1.9-1.8-1.9-4.2s1-4.2,1.9-4.2s1.9,1.8,1.9,4.2S168.9,666,168,666z"/>
</g>
<g>
	<g>
		<path fill="#884E31" d="M89.2,668.7l41.4-10.5c8.3-2.1,14-9.5,14-18v-31h-9.3v31c0,4.3-2.9,8-7,9l-41.4,10.5L89.2,668.7z"/>
	</g>
	<circle fill="#F15A29" cx="140" cy="589.3" r="45.7"/>
	<g>
		<rect x="76.1" y="596.5" fill="#884E31" width="24" height="91.6"/>
	</g>
	<circle fill="#F7941E" cx="88.1" cy="555.2" r="70.7"/>
	<g>
		<path fill="#884E31" d="M86.6,654.4l3-8.8l-28-9.6c-4.4-1.5-7.3-5.6-7.3-10.3V595H45v30.8c0,8.6,5.5,16.3,13.6,19.1L86.6,654.4z"
			/>
	</g>
	<circle fill="#FBB040" cx="49.6" cy="589" r="39.2"/>
</g>
<g>
	<rect x="829" y="424.9" fill="#F1F2F2" width="112.6" height="248.3"/>
	<rect x="829" y="410.3" fill="#D1D3D4" width="112.6" height="14.6"/>
	<g>
		<rect x="949" y="424.9" fill="#D1D3D4" width="7.3" height="248.3"/>
		<rect x="941.6" y="443.2" fill="#D1D3D4" width="14.7" height="7.3"/>
		<rect x="941.6" y="472.4" fill="#D1D3D4" width="14.7" height="7.3"/>
		<rect x="941.6" y="501.6" fill="#D1D3D4" width="14.7" height="7.3"/>
		<rect x="941.6" y="530.8" fill="#D1D3D4" width="14.7" height="7.3"/>
		<rect x="941.6" y="560" fill="#D1D3D4" width="14.7" height="7.3"/>
		<rect x="941.6" y="589.2" fill="#D1D3D4" width="14.7" height="7.3"/>
		<rect x="941.6" y="618.5" fill="#D1D3D4" width="14.7" height="7.3"/>
		<rect x="941.6" y="647.7" fill="#D1D3D4" width="14.7" height="7.3"/>
	</g>
	<rect x="829" y="439.5" fill="#D1D3D4" width="112.6" height="14.6"/>
	<rect x="829" y="468.7" fill="#D1D3D4" width="112.6" height="14.6"/>
	<rect x="829" y="498" fill="#D1D3D4" width="112.6" height="14.6"/>
	<rect x="829" y="527.2" fill="#D1D3D4" width="112.6" height="14.6"/>
	<rect x="829" y="556.4" fill="#D1D3D4" width="112.6" height="14.6"/>
	<rect x="829" y="585.6" fill="#D1D3D4" width="112.6" height="14.6"/>
	<rect x="829" y="614.8" fill="#D1D3D4" width="112.6" height="14.6"/>
	<rect x="829" y="644" fill="#D1D3D4" width="112.6" height="14.6"/>
	<path fill="#F1F2F2" d="M885.3,354c-31.1,0-56.3,25.2-56.3,56.3h112.6C941.6,379.2,916.4,354,885.3,354z"/>
</g>
<g>
	<ellipse fill="#72A643" cx="700.2" cy="673.2" rx="105.8" ry="16"/>
</g>
<g>
	<ellipse fill="#72A643" cx="492.7" cy="673.2" rx="93.1" ry="12.4"/>
</g>
<g>
	<polygon fill="#CA3727" points="765.1,503.8 700.6,477 636,503.8 609.3,551.3 609.3,551.3 609.3,551.3 609.3,673.2 791.9,673.2 
		791.9,551.3 	"/>
	<polygon fill="#F1F2F2" points="636,503.8 700.6,477 765.1,503.8 797.9,561.9 806.8,556.9 772.3,495.7 700.6,466 628.9,495.7 
		594.4,556.9 603.3,561.9 	"/>
	<polygon opacity="0.5" fill="#939598" points="791.9,551.3 771.6,515.3 771.6,515.3 768.6,510 765.1,503.8 746.7,496.1 
		743.7,494.9 743.7,494.9 726,487.5 726,487.5 721.8,485.8 700.6,477 680.3,485.4 680.3,485.4 677.6,486.5 655.2,495.8 652.4,497 
		652.4,497 636,503.8 634.7,506.2 634.7,506.2 629.6,515.3 629.6,515.3 609.3,551.3 609.3,551.3 609.3,557 629.6,526.3 629.6,673.2 
		634.7,673.2 634.7,518.5 636,516.5 652.4,510.7 652.4,673.2 657.5,673.2 657.5,508.9 675.2,502.6 675.2,673.2 680.3,673.2 
		680.3,500.8 698,494.5 698,673.2 703.2,673.2 703.2,494.5 720.9,500.8 720.9,673.2 726,673.2 726,502.6 743.7,508.9 743.7,673.2 
		748.8,673.2 748.8,510.7 765.1,516.5 766.5,518.5 766.5,673.2 771.6,673.2 771.6,526.3 791.9,557 	"/>
	<rect x="643.2" y="585.7" fill="#BF7D54" width="114.7" height="8.1"/>
	<rect x="643.2" y="593.8" opacity="0.5" fill="#939598" width="114.7" height="5.4"/>
	<rect x="675.2" y="563.2" opacity="0.5" fill="#939598" width="50.8" height="2.6"/>
	<polygon fill="#DDD4BB" points="703.2,603.4 698,603.4 652.4,603.4 652.4,673.2 698,673.2 703.2,673.2 748.8,673.2 748.8,603.4 	
		"/>
	<g>
		<rect x="657.5" y="608.5" fill="#A81F24" width="40.5" height="59.6"/>
		<rect x="703.2" y="608.5" fill="#A81F24" width="40.5" height="59.6"/>
	</g>
	<g>
		<polygon fill="#DDD4BB" points="701.9,514.4 699.3,514.4 675.2,514.4 675.2,537.5 675.2,540.1 675.2,563.2 699.3,563.2 
			701.9,563.2 726,563.2 726,540.1 726,537.5 726,514.4 		"/>
		<g>
			<rect x="677.8" y="540.1" fill="#594A42" width="21.5" height="20.5"/>
			<rect x="677.8" y="517" fill="#594A42" width="21.5" height="20.5"/>
			<rect x="701.9" y="540.1" fill="#594A42" width="21.5" height="20.5"/>
			<rect x="701.9" y="517" fill="#594A42" width="21.5" height="20.5"/>
		</g>
	</g>
	<g>
		
			<rect x="641.7" y="635.8" transform="matrix(0.5625 0.8268 -0.8268 0.5625 824.3325 -281.107)" fill="#DDD4BB" width="72.1" height="5.1"/>
	</g>
	<g>
		
			<rect x="720.9" y="602.3" transform="matrix(0.8268 0.5625 -0.5625 0.8268 484.3423 -296.3592)" fill="#DDD4BB" width="5.1" height="72.1"/>
	</g>
</g>
<g>
	<g>
		<g>
			
				<rect x="480.5" y="555" transform="matrix(0.526 0.8505 -0.8505 0.526 754.7418 -119.1418)" fill="#884E31" width="7.6" height="125.1"/>
		</g>
		<g>
			
				<rect x="438.6" y="613.8" transform="matrix(0.8505 0.526 -0.526 0.8505 399.8197 -171.2828)" fill="#884E31" width="125.1" height="7.6"/>
		</g>
		<g>
			
				<rect x="481.5" y="508.4" transform="matrix(0.6138 0.7895 -0.7895 0.6138 626.1243 -168.4916)" fill="#884E31" width="7.6" height="94.5"/>
		</g>
		<g>
			
				<rect x="452.9" y="551.9" transform="matrix(0.7895 0.6138 -0.6138 0.7895 446.3391 -190.0046)" fill="#884E31" width="94.5" height="7.6"/>
		</g>
		<g>
			<rect x="448" y="580.9" fill="#884E31" width="89.5" height="7.6"/>
		</g>
		<g>
			<rect x="462.9" y="522.9" fill="#884E31" width="59.7" height="7.6"/>
		</g>
		<g>
			<rect x="431.1" y="646.7" fill="#884E31" width="123.3" height="7.6"/>
		</g>
	</g>
	<polygon fill="#BF7D54" points="492.7,436.1 553.6,673.2 566.8,673.2 498.9,408.9 486.6,408.9 418.7,673.2 431.8,673.2 	"/>
	<g>
		<g>
			<rect x="490.7" y="410.5" fill="#A7A9AC" width="4" height="71.9"/>
		</g>
		<g>
			
				<rect x="470.5" y="441.7" transform="matrix(0.3827 0.9239 -0.9239 0.3827 722.603 -194.0006)" fill="#A7A9AC" width="71.9" height="4"/>
		</g>
		<g>
			
				<rect x="482.2" y="433.9" transform="matrix(0.7071 0.7071 -0.7071 0.7071 460.0083 -238.6951)" fill="#A7A9AC" width="71.9" height="4"/>
		</g>
		<g>
			
				<rect x="490" y="422.3" transform="matrix(0.9239 0.3827 -0.3827 0.9239 202.3931 -168.9672)" fill="#A7A9AC" width="71.9" height="4"/>
		</g>
		<g>
			<rect x="492.7" y="408.5" fill="#A7A9AC" width="71.9" height="4"/>
		</g>
		<g>
			
				<rect x="523.9" y="360.8" transform="matrix(0.3826 0.9239 -0.9239 0.3826 691.2736 -240.9549)" fill="#A7A9AC" width="4" height="71.9"/>
		</g>
		<g>
			
				<rect x="516.1" y="349.1" transform="matrix(0.7071 0.7071 -0.7071 0.7071 424.0606 -253.5851)" fill="#A7A9AC" width="4" height="71.9"/>
		</g>
		<g>
			
				<rect x="504.5" y="341.4" transform="matrix(0.9239 0.3826 -0.3826 0.9239 182.8929 -165.0702)" fill="#A7A9AC" width="4" height="71.9"/>
		</g>
		<g>
			<rect x="490.7" y="338.6" fill="#A7A9AC" width="4" height="71.9"/>
		</g>
		<g>
			
				<rect x="443" y="375.3" transform="matrix(0.3827 0.9239 -0.9239 0.3827 644.2497 -209.5864)" fill="#A7A9AC" width="71.9" height="4"/>
		</g>
		<g>
			
				<rect x="431.3" y="383.1" transform="matrix(0.7071 0.7071 -0.7071 0.7071 409.1705 -217.6374)" fill="#A7A9AC" width="71.9" height="4"/>
		</g>
		<g>
			
				<rect x="423.6" y="394.8" transform="matrix(0.9239 0.3827 -0.3827 0.9239 186.8102 -145.6437)" fill="#A7A9AC" width="71.9" height="4"/>
		</g>
		<g>
			<rect x="420.8" y="408.5" fill="#A7A9AC" width="71.9" height="4"/>
		</g>
		<g>
			
				<rect x="457.5" y="388.3" transform="matrix(0.3826 0.9239 -0.9239 0.3826 675.6842 -162.5995)" fill="#A7A9AC" width="4" height="71.9"/>
		</g>
		<g>
			
				<rect x="465.3" y="400" transform="matrix(0.7071 0.7071 -0.7071 0.7071 445.1183 -202.7474)" fill="#A7A9AC" width="4" height="71.9"/>
		</g>
		<g>
			
				<rect x="477" y="407.8" transform="matrix(0.9239 0.3826 -0.3826 0.9239 206.213 -149.4896)" fill="#A7A9AC" width="4" height="71.9"/>
		</g>
	</g>
	<g>
		<path fill="#F1F2F2" d="M509.5,410.5c0-9.3-7.5-16.8-16.8-16.8s-16.8,7.5-16.8,16.8c0,9.3,7.5,16.8,16.8,16.8
			S509.5,419.8,509.5,410.5z"/>
	</g>
	<g>
		<g>
			<path fill="#F1F2F2" d="M502.6,326.6l-3.5,41.7c-0.1,1.5-1.4,2.7-3,2.7h-6.9c-1.6,0-2.8-1.2-3-2.7l-3.5-41.7
				c-0.1-1.7,1.2-3.2,3-3.2h13.8C501.4,323.3,502.8,324.8,502.6,326.6z"/>
		</g>
		<g>
			<path fill="#F1F2F2" d="M469.7,329.2l12.7,39.9c0.5,1.5-0.3,3.1-1.7,3.7l-6.3,2.6c-1.4,0.6-3.1,0-3.8-1.4l-19.2-37.2
				c-0.8-1.6-0.1-3.5,1.5-4.1l12.8-5.3C467.4,326.6,469.2,327.5,469.7,329.2z"/>
		</g>
		<g>
			<path fill="#F1F2F2" d="M440.4,344.2l27,32c1,1.2,0.9,2.9-0.2,4l-4.8,4.8c-1.1,1.1-2.9,1.2-4,0.2l-32-27
				c-1.3-1.1-1.4-3.2-0.2-4.4l9.8-9.8C437.2,342.7,439.2,342.8,440.4,344.2z"/>
		</g>
		<g>
			<path fill="#F1F2F2" d="M418.9,369.2l37.2,19.2c1.4,0.7,2,2.4,1.4,3.8l-2.6,6.3c-0.6,1.4-2.2,2.2-3.7,1.7l-39.9-12.7
				c-1.7-0.5-2.5-2.4-1.9-4l5.3-12.8C415.5,369.1,417.4,368.4,418.9,369.2z"/>
		</g>
		<g>
			<path fill="#F1F2F2" d="M408.8,400.6l41.7,3.5c1.5,0.1,2.7,1.4,2.7,3l0,6.9c0,1.6-1.2,2.8-2.7,3l-41.7,3.5
				c-1.7,0.1-3.2-1.2-3.2-3v-13.8C405.5,401.8,407,400.5,408.8,400.6z"/>
		</g>
		<g>
			<path fill="#F1F2F2" d="M411.4,433.5l39.9-12.7c1.5-0.5,3.1,0.3,3.7,1.7l2.6,6.3c0.6,1.4,0,3.1-1.4,3.8l-37.2,19.2
				c-1.6,0.8-3.5,0.1-4.1-1.5l-5.3-12.8C408.8,435.9,409.7,434,411.4,433.5z"/>
		</g>
		<g>
			<path fill="#F1F2F2" d="M426.4,462.9l32-27c1.2-1,2.9-0.9,4,0.2l4.8,4.8c1.1,1.1,1.2,2.9,0.2,4l-27,32c-1.1,1.3-3.2,1.4-4.4,0.2
				l-9.8-9.8C424.9,466,425,464,426.4,462.9z"/>
		</g>
		<g>
			<path fill="#F1F2F2" d="M451.4,484.3l19.2-37.2c0.7-1.4,2.4-2,3.8-1.4l6.3,2.6c1.4,0.6,2.2,2.2,1.7,3.7l-12.7,39.9
				c-0.5,1.7-2.4,2.5-4,1.9l-12.8-5.3C451.3,487.7,450.6,485.8,451.4,484.3z"/>
		</g>
		<g>
			<path fill="#F1F2F2" d="M515.7,491.9L503,452c-0.5-1.5,0.3-3.1,1.7-3.7l6.3-2.6c1.4-0.6,3.1,0,3.8,1.4l19.2,37.2
				c0.8,1.6,0.1,3.5-1.5,4.1l-12.8,5.3C518.1,494.4,516.2,493.5,515.7,491.9z"/>
		</g>
		<g>
			<path fill="#F1F2F2" d="M545.1,476.9l-27-32c-1-1.2-0.9-2.9,0.2-4l4.8-4.8c1.1-1.1,2.9-1.2,4-0.2l32,27c1.3,1.1,1.4,3.2,0.2,4.4
				l-9.8,9.8C548.2,478.3,546.2,478.2,545.1,476.9z"/>
		</g>
		<g>
			<path fill="#F1F2F2" d="M574.1,387.5l-39.9,12.7c-1.5,0.5-3.1-0.3-3.7-1.7l-2.6-6.3c-0.6-1.4,0-3.1,1.4-3.8l37.2-19.2
				c1.6-0.8,3.5-0.1,4.1,1.5l5.3,12.8C576.6,385.2,575.7,387,574.1,387.5z"/>
		</g>
		<g>
			<path fill="#F1F2F2" d="M559.1,358.1l-32,27c-1.2,1-2.9,0.9-4-0.2l-4.8-4.8c-1.1-1.1-1.2-2.9-0.2-4l27-32
				c1.1-1.3,3.2-1.4,4.4-0.2l9.8,9.8C560.5,355,560.4,357,559.1,358.1z"/>
		</g>
		<g>
			<path fill="#F1F2F2" d="M534,336.7L514.8,374c-0.7,1.4-2.4,2-3.8,1.4l-6.3-2.6c-1.4-0.6-2.2-2.2-1.7-3.7l12.7-39.9
				c0.5-1.7,2.4-2.5,4-1.9l12.8,5.3C534.1,333.3,534.8,335.2,534,336.7z"/>
		</g>
		<g>
			<path fill="#F1F2F2" d="M566.5,451.8l-37.2-19.2c-1.4-0.7-2-2.4-1.4-3.8l2.6-6.3c0.6-1.4,2.2-2.2,3.7-1.7l39.9,12.7
				c1.7,0.5,2.5,2.4,1.9,4l-5.3,12.8C569.9,451.9,568,452.6,566.5,451.8z"/>
		</g>
		<g>
			<path fill="#F1F2F2" d="M576.7,420.4l-41.7-3.5c-1.5-0.1-2.7-1.4-2.7-3v-6.9c0-1.6,1.2-2.8,2.7-3l41.7-3.5c1.7-0.1,3.2,1.2,3.2,3
				v13.8C579.9,419.2,578.4,420.6,576.7,420.4z"/>
		</g>
		<g>
			<path fill="#F1F2F2" d="M482.8,494.5l3.5-41.7c0.1-1.5,1.4-2.7,3-2.7h6.9c1.6,0,2.8,1.2,3,2.7l3.5,41.7c0.1,1.7-1.2,3.2-3,3.2
				h-13.8C484,497.7,482.7,496.2,482.8,494.5z"/>
		</g>
	</g>
</g>
<g>
	<polygon fill="#884E31" points="447.5,667.1 437.6,659.9 427.8,667.1 427.8,667.1 427.8,735.9 447.5,735.9 447.5,667.1 	"/>
	<polygon fill="#884E31" points="486.2,667.1 476.4,659.9 466.6,667.1 466.6,667.1 466.6,735.9 486.2,735.9 486.2,667.1 	"/>
	<polygon fill="#884E31" points="408.7,667.1 398.9,659.9 389,667.1 389,667.1 389,735.9 408.7,735.9 408.7,667.1 	"/>
	<polygon fill="#884E31" points="525,667.1 515.2,659.9 505.3,667.1 505.3,667.1 505.3,735.9 525,735.9 525,667.1 	"/>
	<polygon fill="#884E31" points="563.8,667.1 553.9,659.9 544.1,667.1 544.1,667.1 544.1,735.9 563.8,735.9 563.8,667.1 	"/>
	<polygon fill="#884E31" points="602.5,667.1 592.7,659.9 582.9,667.1 582.9,667.1 582.9,735.9 602.5,735.9 602.5,667.1 	"/>
	<rect x="382.3" y="683.9" fill="#BF7D54" width="227" height="8.5"/>
	<rect x="382.3" y="711.1" fill="#BF7D54" width="227" height="8.5"/>
</g>
<g>
	<polygon fill="#884E31" points="857.1,667.1 847.3,659.9 837.4,667.1 837.4,667.1 837.4,735.9 857.1,735.9 857.1,667.1 	"/>
	<polygon fill="#884E31" points="895.9,667.1 886,659.9 876.2,667.1 876.2,667.1 876.2,735.9 895.9,735.9 895.9,667.1 	"/>
	<polygon fill="#884E31" points="818.3,667.1 808.5,659.9 798.7,667.1 798.6,667.1 798.6,735.9 818.3,735.9 818.3,667.1 	"/>
	<polygon fill="#884E31" points="934.6,667.1 924.8,659.9 915,667.1 915,667.1 915,735.9 934.6,735.9 934.6,667.1 	"/>
	<polygon fill="#884E31" points="973.4,667.1 963.6,659.9 953.7,667.1 953.7,667.1 953.7,735.9 973.4,735.9 973.4,667.1 	"/>
	<polygon fill="#884E31" points="1012.2,667.1 1002.3,659.9 992.5,667.1 992.5,667.1 992.5,735.9 1012.2,735.9 1012.2,667.1 	"/>
	<rect x="791.9" y="683.9" fill="#BF7D54" width="227" height="8.5"/>
	<rect x="791.9" y="711.1" fill="#BF7D54" width="227" height="8.5"/>
</g>
<g>
	<g>
		<path fill="#884E31" d="M326.4,669.5l39.4-10c7.9-2,13.4-9.1,13.4-17.2v-29.5h-8.9v29.5c0,4.1-2.7,7.6-6.7,8.6l-39.4,10
			L326.4,669.5z"/>
	</g>
	<circle fill="#006838" cx="374.8" cy="593.8" r="43.6"/>
	<g>
		<rect x="313.9" y="600.7" fill="#884E31" width="22.9" height="87.3"/>
	</g>
	<circle fill="#009444" cx="325.3" cy="561.3" r="67.4"/>
	<g>
		<path fill="#884E31" d="M323.9,655.8l2.9-8.4l-26.7-9.1c-4.2-1.4-7-5.4-7-9.8v-29.3h-8.9v29.3c0,8.2,5.2,15.5,13,18.2L323.9,655.8
			z"/>
	</g>
	<circle fill="#39B54A" cx="288.6" cy="593.5" r="37.3"/>
</g>
<g>
	<ellipse fill="#9B593A" cx="270.4" cy="645" rx="5.2" ry="10"/>
	<rect x="173.2" y="635" fill="#9B593A" width="97.2" height="19.9"/>
	<ellipse fill="#9B593A" cx="173.2" cy="645" rx="5.2" ry="10"/>
	<path fill="#BF7D54" d="M173.2,653.6c-1.9,0-3.9-3.7-3.9-8.7s2.1-8.7,3.9-8.7s3.9,3.7,3.9,8.7S175,653.6,173.2,653.6z"/>
	<path fill="#AE734C" d="M173.2,649.1c-0.9,0-1.9-1.8-1.9-4.2s1-4.2,1.9-4.2s1.9,1.8,1.9,4.2S174.1,649.1,173.2,649.1z"/>
</g>
<g>
	<ellipse fill="#884E31" cx="270.4" cy="678.2" rx="5.2" ry="10"/>
	<rect x="173.2" y="668.2" fill="#884E31" width="97.2" height="19.9"/>
	<ellipse fill="#884E31" cx="173.2" cy="678.2" rx="5.2" ry="10"/>
	<path fill="#BF7D54" d="M173.2,686.9c-1.9,0-3.9-3.7-3.9-8.7c0-5,2.1-8.7,3.9-8.7s3.9,3.7,3.9,8.7
		C177.1,683.2,175,686.9,173.2,686.9z"/>
	<path fill="#AE734C" d="M173.2,682.4c-0.9,0-1.9-1.8-1.9-4.2c0-2.4,1-4.2,1.9-4.2s1.9,1.8,1.9,4.2
		C175.1,680.6,174.1,682.4,173.2,682.4z"/>
</g>
<g>
	<ellipse fill="#915335" cx="275.6" cy="661.8" rx="5.2" ry="10"/>
	<rect x="178.4" y="651.8" fill="#915335" width="97.2" height="19.9"/>
	<ellipse fill="#915335" cx="178.4" cy="661.8" rx="5.2" ry="10"/>
	<path fill="#BF7D54" d="M178.4,670.5c-1.9,0-3.9-3.7-3.9-8.7c0-5,2.1-8.7,3.9-8.7c1.9,0,3.9,3.7,3.9,8.7
		C182.3,666.8,180.3,670.5,178.4,670.5z"/>
	<path fill="#AE734C" d="M178.4,666c-0.9,0-1.9-1.8-1.9-4.2s1-4.2,1.9-4.2s1.9,1.8,1.9,4.2S179.3,666,178.4,666z"/>
</g>
<g>
	<ellipse fill="#884E31" cx="281.4" cy="678.2" rx="5.2" ry="10"/>
	<rect x="184.2" y="668.2" fill="#884E31" width="97.2" height="19.9"/>
	<ellipse fill="#884E31" cx="184.2" cy="678.2" rx="5.2" ry="10"/>
	<path fill="#BF7D54" d="M184.2,686.9c-1.9,0-3.9-3.7-3.9-8.7c0-5,2.1-8.7,3.9-8.7c1.9,0,3.9,3.7,3.9,8.7
		C188.1,683.2,186,686.9,184.2,686.9z"/>
	<path fill="#AE734C" d="M184.2,682.4c-0.9,0-1.9-1.8-1.9-4.2c0-2.4,1-4.2,1.9-4.2s1.9,1.8,1.9,4.2
		C186.1,680.6,185.1,682.4,184.2,682.4z"/>
</g>
<g>
	<g>
		<polygon fill="#CA3727" points="1157.1,443.8 1100,420.1 1043,443.8 1019.3,485.8 1019.3,485.8 1019.3,485.8 1019.3,673.2 
			1180.8,673.2 1180.8,485.8 		"/>
		<polygon fill="#F1F2F2" points="1043,443.8 1100,420.1 1157.1,443.8 1186.1,495.2 1193.9,490.8 1163.5,436.6 1100,410.3 
			1036.6,436.6 1006.1,490.8 1014,495.2 		"/>
		<polygon opacity="0.5" fill="#939598" points="1180.8,485.8 1162.8,453.9 1162.8,453.9 1160.2,449.3 1157.1,443.8 1140.8,437 
			1138.1,435.9 1138.1,435.9 1122.5,429.4 1122.5,429.4 1118.8,427.9 1100,420.1 1082.1,427.5 1082.1,427.5 1079.7,428.5 
			1059.9,436.7 1057.4,437.8 1057.4,437.8 1043,443.8 1041.7,445.9 1041.7,445.9 1037.2,453.9 1037.2,453.9 1019.3,485.8 
			1019.3,485.8 1019.3,490.9 1037.2,463.7 1037.2,673.2 1041.7,673.2 1041.7,456.8 1043,455 1057.4,449.9 1057.4,673.2 
			1061.9,673.2 1061.9,448.3 1077.6,442.8 1077.6,673.2 1082.1,673.2 1082.1,441.2 1097.8,435.6 1097.8,673.2 1102.3,673.2 
			1102.3,435.6 1118,441.2 1118,673.2 1122.5,673.2 1122.5,442.8 1138.1,448.3 1138.1,673.2 1142.7,673.2 1142.7,449.9 1157.1,455 
			1158.3,456.8 1158.3,673.2 1162.8,673.2 1162.8,463.7 1180.8,490.9 		"/>
	</g>
	<rect x="1049.3" y="595.8" fill="#BF7D54" width="101.4" height="7.2"/>
	<rect x="1049.3" y="603" opacity="0.5" fill="#939598" width="101.4" height="4.8"/>
	<polygon fill="#DDD4BB" points="1102.3,611.5 1097.8,611.5 1057.4,611.5 1057.4,673.2 1097.8,673.2 1102.3,673.2 1142.7,673.2 
		1142.7,611.5 	"/>
	<g>
		<rect x="1061.9" y="616" fill="#A81F24" width="35.8" height="52.7"/>
		<rect x="1102.3" y="616" fill="#A81F24" width="35.8" height="52.7"/>
	</g>
	<g>
		
			<rect x="1048" y="640.1" transform="matrix(0.5625 0.8268 -0.8268 0.5625 1003.5955 -611.7903)" fill="#DDD4BB" width="63.7" height="4.5"/>
	</g>
	<g>
		
			<rect x="1118" y="610.5" transform="matrix(0.8268 0.5625 -0.5625 0.8268 555.3369 -518.8564)" fill="#DDD4BB" width="4.5" height="63.7"/>
	</g>
	<g>
		
			<rect x="1080.8" y="509" transform="matrix(0.7071 0.7071 -0.7071 0.7071 701.4713 -667.3904)" fill="#884E31" width="151.1" height="8.1"/>
		
			<rect x="1097.5" y="524.1" transform="matrix(0.7071 0.7071 -0.7071 0.7071 718.9772 -659.6927)" fill="#BF7D54" width="116.6" height="28"/>
		
			<rect x="986" y="373" transform="matrix(0.7071 0.7071 -0.7071 0.7071 579.4764 -625.07)" fill="#BF7D54" width="116.6" height="28"/>
		
			<rect x="968.2" y="407.9" transform="matrix(0.7071 0.7071 -0.7071 0.7071 596.9824 -617.3722)" fill="#884E31" width="151.1" height="8.1"/>
		
			<rect x="1075" y="402.1" transform="matrix(0.7071 -0.7071 0.7071 0.7071 49.7861 932.5632)" fill="#884E31" width="151.1" height="8.1"/>
		
			<rect x="1117.3" y="392.7" transform="matrix(0.7071 -0.7071 0.7071 0.7071 56.7215 950.3849)" fill="#BF7D54" width="116.6" height="28"/>
		
			<rect x="966.2" y="504.3" transform="matrix(0.7071 -0.7071 0.7071 0.7071 -66.4024 876.2249)" fill="#BF7D54" width="116.6" height="28"/>
		
			<rect x="973.9" y="514.7" transform="matrix(0.7071 -0.7071 0.7071 0.7071 -59.4671 894.0466)" fill="#884E31" width="151.1" height="8.1"/>
		<circle fill="#D1D3D4" cx="1100" cy="462.5" r="15.9"/>
		<circle fill="#939598" cx="1100" cy="462.5" r="11.4"/>
	</g>
</g>
<g>
	<g>
		<rect x="1270" y="592.8" fill="#884E31" width="17.9" height="87.3"/>
	</g>
	<path fill="#006838" d="M1279,453c27.3,0,49.4,71.3,49.4,122.2s-22.1,62.2-49.4,62.2c-27.3,0-49.4-11.3-49.4-62.2
		S1251.7,453,1279,453z"/>
</g>
<g>
	<g>
		<rect x="1209.3" y="600.7" fill="#884E31" width="17.9" height="87.3"/>
	</g>
	<path fill="#009444" d="M1218.3,460.9c27.3,0,49.4,71.3,49.4,122.2c0,50.9-22.1,62.2-49.4,62.2c-27.3,0-49.4-11.3-49.4-62.2
		C1168.9,532.2,1191,460.9,1218.3,460.9z"/>
</g>
<g>
	<g>
		<rect x="1336.6" y="600.7" fill="#884E31" width="17.9" height="87.3"/>
	</g>
	<path fill="#39B54A" d="M1345.6,460.9c27.3,0,49.4,71.3,49.4,122.2c0,50.9-22.1,62.2-49.4,62.2c-27.3,0-49.4-11.3-49.4-62.2
		C1296.2,532.2,1318.3,460.9,1345.6,460.9z"/>
</g>
<g>
	<path fill="#EB9033" d="M261.9,718.2c-52.9,0-95.7,59.3-95.7,112.2h191.5C357.6,777.5,314.7,718.2,261.9,718.2z"/>
	<g>
		<path fill="#D9852F" d="M166.1,830.4h29.5c0-52.9,29.7-112.2,66.3-112.2C209,718.2,166.1,777.5,166.1,830.4z"/>
	</g>
	<path fill="#F8B642" d="M306.6,748.4c-2.2-4.2-4.9-8.2-8-12c-3.1-3.7-6.6-7.2-10.5-10.3c-0.5-0.4-1.1-0.9-1.7-1.3
		c-3.8-2.9-8.4-4.9-13.1-5.6c-1.5-0.2-2.9-0.4-4.4-0.6c0.3-0.2,0.5-0.4,0.7-0.7c3.5-3.5,4.6-8,2.5-10.1c-1.4-1.4-4-1.4-6.6-0.1
		c-0.6-3.9-2.7-6.8-5.2-6.8s-4.6,2.9-5.2,6.8c-2.6-1.3-5.1-1.3-6.6,0.1c-2.1,2.1-1,6.6,2.5,10.1c0.4,0.4,0.7,0.7,1.1,1
		c-3.1,0.4-6.1,1.1-9.1,1.9c-3.8,1-7.4,2.8-10.4,5.3c0,0,0,0,0,0c-3.9,3.1-7.4,6.6-10.5,10.3c-3.1,3.7-5.8,7.8-8,12
		c6.4-7.1,14-12.6,22.2-16.5c0.9-0.4,1.7-0.8,2.6-1.1c-2,2.9-3.8,5.9-5.3,9c-1.7,3.6-3,7.3-3.9,11.1c3.8-6.7,9.1-12.2,15-16.6
		c1.1-0.8,2.3-1.6,3.4-2.4c-0.1,0.3-0.2,0.6-0.2,0.9c-1.6,6.5-2.3,12.9-2.5,19.3c2.4-5.9,5.4-11.5,8.8-16.5c0.7-1,1.4-1.9,2.1-2.8
		l4,19.9l4-19.9c0.7,0.9,1.4,1.9,2.1,2.8c3.5,5,6.4,10.6,8.8,16.5c-0.2-6.4-0.9-12.9-2.5-19.3c-0.1-0.3-0.1-0.5-0.2-0.8
		c1.1,0.7,2.3,1.5,3.4,2.3c5.9,4.4,11.1,9.9,15.1,16.6c-0.9-3.8-2.2-7.5-3.9-11.1c-1.5-3.2-3.3-6.2-5.3-9.1c0.9,0.4,1.8,0.8,2.7,1.2
		C292.6,735.8,300.2,741.3,306.6,748.4z"/>
	<g>
		<g>
			<path fill="#D9852F" d="M244.1,779.6c-0.6,0-1.1-0.4-1.2-0.9l-3.5-12.1c-0.2-0.7,0.2-1.4,0.9-1.6c0.7-0.2,1.4,0.2,1.6,0.9
				l3.5,12.1c0.2,0.7-0.2,1.4-0.9,1.6C244.3,779.6,244.2,779.6,244.1,779.6z"/>
		</g>
		<g>
			<path fill="#D9852F" d="M322.4,775.6c-0.6,0-1.1-0.4-1.2-0.9l-3.5-12.1c-0.2-0.7,0.2-1.4,0.9-1.6c0.7-0.2,1.4,0.2,1.6,0.9
				l3.5,12.1c0.2,0.7-0.2,1.4-0.9,1.6C322.7,775.6,322.5,775.6,322.4,775.6z"/>
		</g>
		<g>
			<path fill="#D9852F" d="M301.8,788.8c-0.4,0-0.7-0.2-1-0.5c-0.5-0.5-0.4-1.4,0.1-1.8l9.6-8.2c0.5-0.5,1.4-0.4,1.8,0.1
				c0.5,0.5,0.4,1.4-0.1,1.8l-9.6,8.2C302.4,788.7,302.1,788.8,301.8,788.8z"/>
		</g>
		<g>
			<path fill="#D9852F" d="M207.1,807c-0.4,0-0.7-0.2-1-0.5c-0.5-0.5-0.4-1.4,0.1-1.8l9.6-8.2c0.5-0.5,1.4-0.4,1.8,0.1
				c0.5,0.5,0.4,1.4-0.1,1.8l-9.6,8.2C207.7,806.9,207.4,807,207.1,807z"/>
		</g>
		<g>
			<path fill="#D9852F" d="M298.2,816.3C298.1,816.3,298.1,816.3,298.2,816.3l-12.7-0.8c-0.7,0-1.3-0.7-1.2-1.4
				c0-0.7,0.7-1.3,1.4-1.2l12.6,0.8c0.7,0,1.3,0.7,1.2,1.4C299.4,815.8,298.8,816.3,298.2,816.3z"/>
		</g>
		<g>
			<path fill="#D9852F" d="M339.2,824.3C339.1,824.3,339.1,824.3,339.2,824.3l-12.7-0.8c-0.7,0-1.3-0.7-1.2-1.4s0.7-1.3,1.4-1.2
				l12.6,0.8c0.7,0,1.3,0.7,1.2,1.4C340.4,823.8,339.9,824.3,339.2,824.3z"/>
		</g>
		<g>
			<path fill="#D9852F" d="M326.9,810.7c-0.6,0-1.1-0.4-1.3-1l-2.8-12.3c-0.2-0.7,0.3-1.4,1-1.6c0.7-0.2,1.4,0.3,1.6,1l2.8,12.3
				c0.2,0.7-0.3,1.4-1,1.6C327,810.7,327,810.7,326.9,810.7z"/>
		</g>
		<g>
			<path fill="#D9852F" d="M254.7,827c-0.6,0-1.1-0.4-1.3-1l-2.8-12.3c-0.2-0.7,0.3-1.4,1-1.6c0.7-0.2,1.4,0.3,1.6,1l2.8,12.3
				c0.2,0.7-0.3,1.4-1,1.6C254.9,827,254.8,827,254.7,827z"/>
		</g>
		<g>
			<path fill="#D9852F" d="M287.9,778.2c-0.3,0-0.7-0.1-1-0.4l-8.6-9.3c-0.5-0.5-0.5-1.3,0.1-1.8c0.5-0.5,1.3-0.5,1.8,0.1l8.6,9.3
				c0.5,0.5,0.5,1.3-0.1,1.8C288.5,778,288.2,778.2,287.9,778.2z"/>
		</g>
		<g>
			<path fill="#D9852F" d="M221.4,788.9c-0.6,0-1.1-0.4-1.2-0.9c-0.2-0.7,0.2-1.4,0.9-1.6l12.1-3.5c0.7-0.2,1.4,0.2,1.6,0.9
				c0.2,0.7-0.2,1.4-0.9,1.6l-12.1,3.5C221.7,788.9,221.5,788.9,221.4,788.9z"/>
		</g>
		<g>
			<path fill="#D9852F" d="M279.1,796.7c-0.7,0-1.3-0.6-1.3-1.3l-0.5-12.6c0-0.7,0.5-1.3,1.3-1.3c0.7,0,1.3,0.5,1.3,1.3l0.5,12.6
				C280.4,796.1,279.9,796.7,279.1,796.7C279.1,796.7,279.1,796.7,279.1,796.7z"/>
		</g>
		<g>
			<path fill="#D9852F" d="M295,766.6c-0.1,0-0.3,0-0.4-0.1c-0.7-0.2-1-1-0.8-1.6l4-12c0.2-0.7,1-1,1.6-0.8c0.7,0.2,1,1,0.8,1.6
				l-4,12C296,766.2,295.5,766.6,295,766.6z"/>
		</g>
		<g>
			<path fill="#D9852F" d="M258.8,779.1c-0.2,0-0.4,0-0.6-0.1c-0.6-0.3-0.9-1.1-0.6-1.8l5.8-11.2c0.3-0.6,1.1-0.9,1.8-0.6
				c0.6,0.3,0.9,1.1,0.6,1.8l-5.8,11.2C259.7,778.9,259.3,779.1,258.8,779.1z"/>
		</g>
		<g>
			<path fill="#D9852F" d="M237.4,809.9c-0.1,0-0.2,0-0.3,0l-12.4-2.5c-0.7-0.1-1.2-0.8-1-1.5c0.1-0.7,0.8-1.2,1.5-1l12.4,2.5
				c0.7,0.1,1.2,0.8,1,1.5C238.5,809.4,238,809.9,237.4,809.9z"/>
		</g>
		<g>
			<path fill="#D9852F" d="M264.7,807.4c-0.2,0-0.4,0-0.6-0.1l-11.2-5.8c-0.6-0.3-0.9-1.1-0.6-1.8s1.1-0.9,1.8-0.6l11.2,5.8
				c0.6,0.3,0.9,1.1,0.6,1.8C265.6,807.2,265.2,807.4,264.7,807.4z"/>
		</g>
		<g>
			<path fill="#D9852F" d="M228,772.5c-0.2,0-0.4,0-0.6-0.1l-11.2-5.8c-0.6-0.3-0.9-1.1-0.6-1.8c0.3-0.6,1.1-0.9,1.8-0.6l11.2,5.8
				c0.6,0.3,0.9,1.1,0.6,1.8C229,772.2,228.5,772.5,228,772.5z"/>
		</g>
	</g>
</g>
<g>
	<g>
		<circle fill="#F8B642" cx="102.4" cy="751.1" r="29.4"/>
	</g>
	<g>
		<path fill="#EB9033" d="M102.4,775c-13.2,0-23.9-10.7-23.9-23.9s10.7-23.9,23.9-23.9s23.9,10.7,23.9,23.9S115.6,775,102.4,775z
			 M102.4,732.8c-10.1,0-18.3,8.2-18.3,18.3c0,10.1,8.2,18.3,18.3,18.3s18.3-8.2,18.3-18.3C120.7,741,112.5,732.8,102.4,732.8z"/>
	</g>
	<g>
		<path fill="#EB9033" d="M102.4,764.1c-7.2,0-13-5.8-13-13s5.8-13,13-13c7.2,0,13,5.8,13,13S109.6,764.1,102.4,764.1z M102.4,743.7
			c-4.1,0-7.4,3.3-7.4,7.4s3.3,7.4,7.4,7.4c4.1,0,7.4-3.3,7.4-7.4S106.5,743.7,102.4,743.7z"/>
	</g>
</g>
<g>
	<g>
		<circle fill="#F8B642" cx="73" cy="801" r="29.4"/>
	</g>
	<g>
		<path fill="#EB9033" d="M73,824.9c-13.2,0-23.9-10.7-23.9-23.9c0-13.2,10.7-23.9,23.9-23.9s23.9,10.7,23.9,23.9
			C96.9,814.2,86.2,824.9,73,824.9z M73,782.7c-10.1,0-18.3,8.2-18.3,18.3c0,10.1,8.2,18.3,18.3,18.3s18.3-8.2,18.3-18.3
			C91.3,790.9,83.1,782.7,73,782.7z"/>
	</g>
	<g>
		<path fill="#EB9033" d="M73,814c-7.2,0-13-5.8-13-13c0-7.2,5.8-13,13-13s13,5.8,13,13C86,808.2,80.2,814,73,814z M73,793.7
			c-4.1,0-7.4,3.3-7.4,7.4c0,4.1,3.3,7.4,7.4,7.4s7.4-3.3,7.4-7.4C80.4,796.9,77.1,793.7,73,793.7z"/>
	</g>
</g>
<g>
	<g>
		<circle fill="#F8B642" cx="131.8" cy="801" r="29.4"/>
	</g>
	<g>
		<path fill="#EB9033" d="M131.8,824.9c-13.2,0-23.9-10.7-23.9-23.9c0-13.2,10.7-23.9,23.9-23.9c13.2,0,23.9,10.7,23.9,23.9
			C155.8,814.2,145,824.9,131.8,824.9z M131.8,782.7c-10.1,0-18.3,8.2-18.3,18.3c0,10.1,8.2,18.3,18.3,18.3
			c10.1,0,18.3-8.2,18.3-18.3C150.1,790.9,141.9,782.7,131.8,782.7z"/>
	</g>
	<g>
		<path fill="#EB9033" d="M131.8,814c-7.2,0-13-5.8-13-13c0-7.2,5.8-13,13-13c7.2,0,13,5.8,13,13C144.8,808.2,139,814,131.8,814z
			 M131.8,793.7c-4.1,0-7.4,3.3-7.4,7.4c0,4.1,3.3,7.4,7.4,7.4c4.1,0,7.4-3.3,7.4-7.4C139.2,796.9,135.9,793.7,131.8,793.7z"/>
	</g>
</g>
<g>
	<ellipse fill="#F1F2F2" cx="1275.8" cy="718.7" rx="39.4" ry="21.7"/>
	<rect x="1233.5" y="718.7" fill="#884E31" width="84.5" height="98.4"/>
	<rect x="1233.5" y="718.7" fill="#7D472C" width="40.8" height="98.4"/>
	<path fill="#BF7D54" d="M1318,713h-84.5c-3.2,0-5.7,2.6-5.7,5.7l0,0c0,3.2,2.6,5.7,5.7,5.7h84.5c3.2,0,5.7-2.6,5.7-5.7l0,0
		C1323.7,715.6,1321.2,713,1318,713z"/>
	<path fill="#BF7D54" d="M1318,811.4h-84.5c-3.2,0-5.7,2.6-5.7,5.7l0,0c0,3.2,2.6,5.7,5.7,5.7h84.5c3.2,0,5.7-2.6,5.7-5.7l0,0
		C1323.7,814,1321.2,811.4,1318,811.4z"/>
	<ellipse fill="#F8B642" cx="1218.6" cy="738.2" rx="39.4" ry="21.7"/>
	<rect x="1176.3" y="738.2" fill="#884E31" width="84.5" height="98.4"/>
	<rect x="1176.3" y="738.2" fill="#7D472C" width="40.8" height="98.4"/>
	<path fill="#BF7D54" d="M1260.8,732.5h-84.5c-3.2,0-5.7,2.6-5.7,5.7v0c0,3.2,2.6,5.7,5.7,5.7h84.5c3.2,0,5.7-2.6,5.7-5.7v0
		C1266.5,735,1264,732.5,1260.8,732.5z"/>
	<path fill="#BF7D54" d="M1260.8,830.9h-84.5c-3.2,0-5.7,2.6-5.7,5.7l0,0c0,3.2,2.6,5.7,5.7,5.7h84.5c3.2,0,5.7-2.6,5.7-5.7l0,0
		C1266.5,833.5,1264,830.9,1260.8,830.9z"/>
	<ellipse fill="#F1F2F2" cx="1329.8" cy="738.2" rx="39.4" ry="21.7"/>
	<rect x="1287.5" y="738.2" fill="#884E31" width="84.5" height="98.4"/>
	<rect x="1287.5" y="738.2" fill="#7D472C" width="40.8" height="98.4"/>
	<path fill="#BF7D54" d="M1372,732.5h-84.5c-3.2,0-5.7,2.6-5.7,5.7v0c0,3.2,2.6,5.7,5.7,5.7h84.5c3.2,0,5.7-2.6,5.7-5.7v0
		C1377.7,735,1375.2,732.5,1372,732.5z"/>
	<path fill="#BF7D54" d="M1372,830.9h-84.5c-3.2,0-5.7,2.6-5.7,5.7l0,0c0,3.2,2.6,5.7,5.7,5.7h84.5c3.2,0,5.7-2.6,5.7-5.7l0,0
		C1377.7,833.5,1375.2,830.9,1372,830.9z"/>
</g>
</svg>
