<?xml version='1.0' encoding='iso-8859-1'?>
<svg version="1.1" xmlns="http://www.w3.org/2000/svg" viewBox="0 0 470 470" xmlns:xlink="http://www.w3.org/1999/xlink" enable-background="new 0 0 470 470">
  <g>
    <path d="M401.17,68.83C356.784,24.444,297.771,0,235,0C172.229,0,113.215,24.444,68.83,68.83C24.444,113.216,0,172.229,0,235   s24.444,121.784,68.83,166.17C113.215,445.556,172.229,470,235,470c62.771,0,121.784-24.444,166.17-68.83S470,297.771,470,235   S445.556,113.216,401.17,68.83z M297.105,23.94C286.597,39.394,262.095,50,235,50c-27.095,0-51.597-10.606-62.105-26.06   C192.6,18.132,213.44,15,235,15C256.561,15,277.4,18.132,297.105,23.94z M15,235c0-94.338,59.691-174.987,143.283-206.19   c2.26,3.994,5.143,7.741,8.542,11.206c-15.365,20.133-28.235,47.121-37.404,78.619C119.169,153.855,113.75,194.094,113.75,235   c0,42.148,5.735,83.453,16.585,119.449c0.978,3.244,3.956,5.337,7.178,5.337c0.717,0,1.446-0.104,2.167-0.321   c3.966-1.195,6.212-5.379,5.016-9.346C134.264,315.51,128.75,275.702,128.75,235c0-74.8,18.935-144.944,49.725-185.526   c13.16,8.581,30.302,14.111,49.025,15.285v389.658c-27.874-4.187-54.118-31.553-72.916-76.559c-1.596-3.822-5.988-5.626-9.811-4.03   c-3.822,1.597-5.626,5.989-4.03,9.812c11.933,28.57,26.968,50.78,43.855,65.526C87.5,426.32,15,338.971,15,235z M285.609,449.116   c13.552-11.89,25.922-28.672,36.533-49.895C344.137,355.23,356.25,296.909,356.25,235c0-30.916-3.006-60.954-8.934-89.28   c-0.849-4.054-4.823-6.654-8.877-5.805c-4.055,0.849-6.653,4.822-5.805,8.877c5.717,27.318,8.615,56.323,8.615,86.208   c0,59.626-11.551,115.564-32.524,157.513c-18.301,36.602-41.581,58.262-66.226,61.927V64.76   c18.723-1.174,35.865-6.704,49.025-15.285c13.693,18.056,25.349,42.363,33.893,70.843c0.975,3.249,3.954,5.347,7.181,5.347   c0.714,0,1.439-0.103,2.158-0.318c3.967-1.19,6.219-5.371,5.028-9.339c-9.11-30.369-21.705-56.45-36.611-75.991   c3.399-3.465,6.282-7.213,8.542-11.206C395.309,60.012,455,140.662,455,235C455,338.897,382.602,426.193,285.609,449.116z"/>
    <circle cx="84.667" cy="134" r="7.5"/>
    <circle cx="306.875" cy="250" r="7.5"/>
    <circle cx="276.875" cy="220" r="7.5"/>
  </g>
</svg>
