<?xml version="1.0" encoding="utf-8"?>
<!-- Svg Vector Icons : http://www.onlinewebfonts.com/icon -->
<!DOCTYPE svg PUBLIC "-//W3C//DTD SVG 1.1//EN" "http://www.w3.org/Graphics/SVG/1.1/DTD/svg11.dtd">
<svg version="1.1" xmlns="http://www.w3.org/2000/svg" xmlns:xlink="http://www.w3.org/1999/xlink" x="0px" y="0px" viewBox="0 0 1000 1000" enable-background="new 0 0 1000 1000" xml:space="preserve">
<metadata> Svg Vector Icons : http://www.onlinewebfonts.com/icon </metadata>
<g><g><path d="M817.8,134.4L705.3,21.8c-7.6-7.6-17.8-11.8-28.5-11.8H210.6c-0.6,0-1,0.2-1.6,0.2c-1.5,0-2.9,0.2-4.3,0.4c-1.2,0.2-2.3,0.4-3.5,0.6c-1.4,0.4-2.5,0.8-3.9,1.2c-1.2,0.4-2.3,0.8-3.5,1.4c-1.2,0.6-2.3,1.2-3.5,1.9c-1.2,0.6-2.3,1.4-3.3,2.1c-1,0.8-1.9,1.6-2.9,2.3c-1.2,1-2.1,1.9-3.1,2.9c-0.4,0.4-0.8,0.8-1.2,1.2c-0.4,0.6-0.8,1.2-1.2,1.5c-1,1.2-1.7,2.3-2.5,3.5c-0.6,1.2-1.2,2.1-1.7,3.3c-0.6,1.2-1.2,2.5-1.5,3.7c-0.4,1.2-0.8,2.5-1.2,3.7c-0.4,1.2-0.6,2.5-0.8,3.7c-0.2,1.4-0.4,2.9-0.4,4.3c0,0.6-0.2,1.4-0.2,1.9v739.4c0,9.5,3.3,18.6,9.3,25.8l134.7,160.8c7.6,9.1,19,14.3,30.8,14.3h444.1c22.3,0,40.1-18,40.1-40.1V162.3C829.7,152.2,825.4,141.9,817.8,134.4z M252.9,777.5l-1.9-2.3V136.7l48.2,40.7v596.2h-7.9c-8.9,0-16.1,7.2-16.1,16.1c0,8.9,7.2,16.1,16.1,16.1h7.9v26.9l-42.2-50.6C255.8,780.4,254.4,778.8,252.9,777.5z M379.6,803.4c2.3,1.3,5,2.5,7.9,2.5h48.2c8.9,0,16.1-7.2,16.1-16.1c0-8.9-7.2-16.1-16.1-16.1h-48.2c-2.9,0-5.6,1-7.9,2.5V203.2h369.7v700.6l-18.4-26.3c-5-7.4-15.1-9.1-22.5-3.9c-7.4,5-9.1,15.1-3.9,22.5l10.3,14.5H379.6V803.4z M692.5,122.6H359l-38.2-32.2l336.5-0.2c0,0,11.8,9.5,17.8,15.1L692.5,122.6z"/><path d="M660.9,403.9c8.9,0,16.1-7.2,16.1-16.1v-48.2c0-8.9-7.2-16.1-16.1-16.1c-8.9,0-16.1,7.2-16.1,16.1v48.2C644.8,396.7,652,403.9,660.9,403.9z"/><path d="M660.9,596.9c8.9,0,16.1-7.2,16.1-16.1v-48.2c0-8.9-7.2-16.1-16.1-16.1c-8.9,0-16.1,7.2-16.1,16.1v48.2C644.8,589.7,652,596.9,660.9,596.9z"/><path d="M660.9,307.4c8.9,0,16.1-7.2,16.1-16.1v-48.2c0-8.9-7.2-16.1-16.1-16.1c-8.9,0-16.1,7.2-16.1,16.1v48.2C644.8,300.2,652,307.4,660.9,307.4z"/><path d="M660.9,500.4c8.9,0,16.1-7.2,16.1-16.1v-48.2c0-8.9-7.2-16.1-16.1-16.1c-8.9,0-16.1,7.2-16.1,16.1v48.2C644.8,493.2,652,500.4,660.9,500.4z"/><path d="M677,773.6v-48.3c0-8.9-7.2-16.1-16.1-16.1c-8.9,0-16.1,7.2-16.1,16.1v48.3c0,8.9,7.2,16.1,16.1,16.1C669.8,789.7,677,782.5,677,773.6z"/><path d="M628.7,773.6h-48.2c-8.9,0-16.1,7.2-16.1,16.1c0,8.9,7.2,16.1,16.1,16.1h48.2c8.9,0,16.1-7.2,16.1-16.1C644.8,780.8,637.7,773.6,628.7,773.6z"/><path d="M532.2,773.6H484c-8.9,0-16.1,7.2-16.1,16.1c0,8.9,7.2,16.1,16.1,16.1h48.2c8.9,0,16.1-7.2,16.1-16.1C548.3,780.8,541.2,773.6,532.2,773.6z"/><path d="M660.9,693.4c8.9,0,16.1-7.2,16.1-16.1V629c0-8.9-7.2-16.1-16.1-16.1c-8.9,0-16.1,7.2-16.1,16.1v48.2C644.8,686,652,693.4,660.9,693.4z"/><path d="M707,843.3l-23.8-33.9c-5-7.4-15.1-9.1-22.5-3.9c-7.4,5-9.1,15.1-3.9,22.5l23.8,33.9c3.1,4.5,8.1,6.8,13.2,6.8c3.1,0,6.4-1,9.1-2.9C710.5,860.8,712.3,850.7,707,843.3z"/></g></g>
</svg>